
<svg width="100" height="100" viewBox="0 0 100 100" fill="none" xmlns="http://www.w3.org/2000/svg">
  <path d="M50 15C30.67 15 15 30.67 15 50C15 69.33 30.67 85 50 85C69.33 85 85 69.33 85 50C85 30.67 69.33 15 50 15Z" fill="#2A866A"/>
  <path d="M50 25C36.19 25 25 36.19 25 50C25 63.81 36.19 75 50 75C63.81 75 75 63.81 75 50C75 36.19 63.81 25 50 25Z" fill="white"/>
  <path d="M50 35C41.72 35 35 41.72 35 50C35 58.28 41.72 65 50 65C58.28 65 65 58.28 65 50C65 41.72 58.28 35 50 35Z" fill="#2A866A"/>
</svg>
